<svg width="20" height="20" viewBox="0 0 41 34" fill="none" xmlns="http://www.w3.org/2000/svg">
<path d="M40.7071 8.70711C41.0976 8.31658 41.0976 7.68342 40.7071 7.29289L34.3431 0.928932C33.9526 0.538408 33.3195 0.538408 32.9289 0.928932C32.5384 1.31946 32.5384 1.95262 32.9289 2.34315L38.5858 8L32.9289 13.6569C32.5384 14.0474 32.5384 14.6805 32.9289 15.0711C33.3195 15.4616 33.9526 15.4616 34.3431 15.0711L40.7071 8.70711ZM1 9H40V7H1V9Z" fill="#8E8E8E"/>
<path d="M0.292893 25.2929C-0.0976311 25.6834 -0.0976311 26.3166 0.292893 26.7071L6.65685 33.0711C7.04738 33.4616 7.68054 33.4616 8.07107 33.0711C8.46159 32.6805 8.46159 32.0474 8.07107 31.6569L2.41421 26L8.07107 20.3431C8.46159 19.9526 8.46159 19.3195 8.07107 18.9289C7.68054 18.5384 7.04738 18.5384 6.65685 18.9289L0.292893 25.2929ZM40 25L1 25V27L40 27V25Z" fill="#8E8E8E"/>
</svg>
